<svg id="svg" version="1.1" xmlns="http://www.w3.org/2000/svg" xmlns:xlink="http://www.w3.org/1999/xlink" width="400" height="400" viewBox="0, 0, 400,400"><g id="svgg"><path id="path0" d="M193.400 310.400 C 192.080 311.034,190.775 311.564,190.500 311.576 C 190.225 311.589,190.000 311.759,190.000 311.953 C 190.000 312.146,189.190 312.509,188.200 312.758 C 187.210 313.008,186.400 313.375,186.400 313.574 C 186.400 313.773,185.815 314.064,185.100 314.220 C 184.385 314.377,182.670 315.021,181.290 315.652 C 179.909 316.283,178.661 316.800,178.516 316.800 C 178.371 316.800,177.431 317.177,176.426 317.639 C 169.998 320.590,167.642 321.600,167.185 321.600 C 166.709 321.600,165.030 322.273,162.200 323.599 C 161.320 324.012,159.790 324.613,158.800 324.936 C 157.809 325.259,156.459 325.788,155.800 326.113 C 153.768 327.111,151.867 327.920,150.300 328.452 C 149.475 328.732,148.800 329.082,148.800 329.230 C 148.800 329.379,148.219 329.616,147.510 329.758 C 146.800 329.900,145.495 330.352,144.610 330.763 C 140.351 332.740,138.510 333.515,137.500 333.754 C 136.895 333.898,136.400 334.178,136.400 334.376 C 136.400 334.574,135.815 334.863,135.100 335.018 C 134.385 335.173,133.170 335.614,132.400 335.998 C 129.808 337.289,127.407 338.337,126.400 338.617 C 125.479 338.874,123.562 339.699,119.374 341.645 C 118.479 342.060,117.466 342.400,117.123 342.400 C 116.779 342.400,116.283 342.658,116.021 342.974 C 115.759 343.290,114.972 343.673,114.272 343.824 C 113.079 344.083,112.431 344.368,108.421 346.400 C 107.552 346.840,106.637 347.200,106.388 347.200 C 105.886 347.200,102.457 348.643,95.104 351.948 C 94.062 352.417,93.072 352.800,92.904 352.799 C 92.737 352.798,91.790 353.184,90.800 353.657 C 89.810 354.129,88.460 354.727,87.800 354.986 C 87.140 355.245,85.790 355.822,84.800 356.269 C 83.810 356.716,81.560 357.677,79.800 358.403 C 78.040 359.130,75.650 360.146,74.488 360.662 C 73.327 361.178,72.112 361.600,71.788 361.600 C 71.465 361.600,71.200 361.760,71.200 361.956 C 71.200 362.152,70.390 362.551,69.400 362.843 C 68.410 363.135,67.600 363.501,67.600 363.656 C 67.600 363.810,67.015 364.060,66.300 364.212 C 65.585 364.363,64.370 364.797,63.600 365.175 C 61.231 366.339,58.667 367.483,57.200 368.032 C 56.430 368.319,55.710 368.679,55.600 368.830 C 55.490 368.982,54.590 369.380,53.600 369.714 C 52.609 370.049,51.259 370.588,50.600 370.913 C 48.568 371.911,46.667 372.720,45.100 373.252 C 44.275 373.532,43.600 373.882,43.600 374.030 C 43.600 374.179,43.087 374.403,42.460 374.528 C 41.833 374.653,40.303 375.216,39.060 375.778 C 37.817 376.340,35.805 377.250,34.588 377.800 C 33.372 378.350,32.112 378.800,31.788 378.800 C 31.465 378.800,31.200 378.966,31.200 379.168 C 31.200 379.371,30.615 379.660,29.900 379.812 C 29.185 379.963,27.970 380.397,27.200 380.775 C 24.083 382.306,22.125 383.157,20.700 383.598 C 19.875 383.853,19.200 384.228,19.200 384.431 C 19.200 384.634,18.902 384.800,18.539 384.800 C 18.175 384.800,16.954 385.237,15.826 385.771 C 14.697 386.304,13.240 386.868,12.587 387.024 C 11.934 387.180,11.130 387.539,10.800 387.823 C 10.470 388.106,9.660 388.468,9.000 388.627 C 8.340 388.786,7.170 389.228,6.400 389.610 C 4.124 390.736,1.451 391.933,0.700 392.162 C 0.052 392.359,-0.445 398.000,0.186 398.000 C 0.366 398.000,2.089 397.290,4.600 396.182 C 5.260 395.890,7.150 395.089,8.800 394.400 C 10.450 393.711,12.340 392.906,13.000 392.610 C 14.246 392.052,24.445 387.716,31.400 384.788 C 37.171 382.358,37.242 382.328,43.600 379.614 C 46.790 378.252,49.760 376.995,50.200 376.821 C 50.640 376.647,52.890 375.655,55.200 374.616 C 57.510 373.577,62.190 371.573,65.600 370.163 C 69.010 368.752,72.340 367.345,73.000 367.036 C 74.612 366.281,87.307 360.850,91.800 358.994 C 93.780 358.176,96.120 357.192,97.000 356.808 C 97.880 356.423,100.716 355.184,103.302 354.054 C 105.887 352.924,108.151 352.000,108.332 352.000 C 108.513 352.000,110.538 351.175,112.831 350.167 C 115.124 349.159,117.540 348.105,118.200 347.825 C 118.860 347.545,120.210 346.948,121.200 346.498 C 122.190 346.048,124.620 345.018,126.600 344.209 C 128.580 343.400,130.740 342.497,131.400 342.201 C 132.060 341.906,134.580 340.826,137.000 339.801 C 139.420 338.777,141.940 337.693,142.600 337.393 C 143.260 337.093,146.230 335.835,149.200 334.597 C 152.170 333.359,154.960 332.192,155.400 332.003 C 161.202 329.521,167.034 327.171,168.800 326.603 C 170.010 326.214,171.450 325.666,172.000 325.386 C 172.550 325.105,174.980 324.026,177.400 322.986 C 179.820 321.947,182.555 320.760,183.478 320.348 C 184.401 319.937,185.271 319.600,185.411 319.600 C 185.786 319.600,190.951 317.335,194.400 315.659 C 196.911 314.438,197.824 314.200,200.000 314.200 C 202.176 314.200,203.089 314.438,205.600 315.659 C 209.049 317.335,214.214 319.600,214.589 319.600 C 214.729 319.600,215.599 319.937,216.522 320.348 C 217.445 320.760,220.180 321.947,222.600 322.986 C 225.020 324.026,227.450 325.105,228.000 325.386 C 228.550 325.666,229.990 326.214,231.200 326.603 C 232.966 327.171,238.798 329.521,244.600 332.003 C 245.040 332.192,247.830 333.359,250.800 334.597 C 253.770 335.835,256.740 337.093,257.400 337.393 C 258.060 337.693,260.580 338.777,263.000 339.801 C 265.420 340.826,267.940 341.906,268.600 342.201 C 269.260 342.497,271.420 343.400,273.400 344.209 C 275.380 345.018,277.810 346.048,278.800 346.498 C 279.790 346.948,281.140 347.545,281.800 347.825 C 282.460 348.105,284.876 349.159,287.169 350.167 C 289.462 351.175,291.487 352.000,291.668 352.000 C 291.849 352.000,294.113 352.924,296.698 354.054 C 299.284 355.184,302.120 356.423,303.000 356.808 C 303.880 357.192,306.220 358.176,308.200 358.994 C 312.693 360.850,325.388 366.281,327.000 367.036 C 327.660 367.345,330.990 368.752,334.400 370.163 C 337.810 371.573,342.490 373.577,344.800 374.616 C 347.110 375.655,349.360 376.647,349.800 376.821 C 350.240 376.995,353.210 378.252,356.400 379.614 C 362.758 382.328,362.829 382.358,368.600 384.788 C 375.555 387.716,385.754 392.052,387.000 392.610 C 387.660 392.906,389.550 393.711,391.200 394.400 C 392.850 395.089,394.740 395.890,395.400 396.182 C 397.911 397.290,399.634 398.000,399.814 398.000 C 400.445 398.000,399.948 392.359,399.300 392.162 C 398.549 391.933,395.876 390.736,393.600 389.610 C 392.830 389.228,391.660 388.786,391.000 388.627 C 390.340 388.468,389.530 388.106,389.200 387.823 C 388.870 387.539,388.066 387.180,387.413 387.024 C 386.760 386.868,385.303 386.304,384.174 385.771 C 383.046 385.237,381.825 384.800,381.461 384.800 C 381.098 384.800,380.800 384.634,380.800 384.431 C 380.800 384.228,380.125 383.853,379.300 383.598 C 377.875 383.157,375.917 382.306,372.800 380.775 C 372.030 380.397,370.815 379.963,370.100 379.812 C 369.385 379.660,368.800 379.371,368.800 379.168 C 368.800 378.966,368.535 378.800,368.212 378.800 C 367.888 378.800,366.673 378.371,365.512 377.846 C 364.350 377.321,362.338 376.411,361.040 375.824 C 359.742 375.237,358.167 374.653,357.540 374.528 C 356.913 374.403,356.400 374.179,356.400 374.030 C 356.400 373.882,355.725 373.532,354.900 373.252 C 353.333 372.720,351.432 371.911,349.400 370.913 C 348.741 370.588,347.391 370.049,346.400 369.714 C 345.410 369.380,344.510 368.982,344.400 368.830 C 344.290 368.679,343.570 368.319,342.800 368.032 C 341.333 367.483,338.769 366.339,336.400 365.175 C 335.630 364.797,334.415 364.363,333.700 364.212 C 332.985 364.060,332.400 363.810,332.400 363.656 C 332.400 363.501,331.590 363.135,330.600 362.843 C 329.610 362.551,328.800 362.152,328.800 361.956 C 328.800 361.760,328.535 361.600,328.212 361.600 C 327.888 361.600,326.673 361.178,325.512 360.662 C 324.350 360.146,321.960 359.130,320.200 358.403 C 318.440 357.677,316.190 356.716,315.200 356.269 C 314.210 355.822,312.860 355.245,312.200 354.986 C 311.540 354.727,310.190 354.129,309.200 353.657 C 308.210 353.184,307.263 352.798,307.096 352.799 C 306.928 352.800,305.938 352.417,304.896 351.948 C 297.543 348.643,294.114 347.200,293.612 347.200 C 293.363 347.200,292.448 346.840,291.579 346.400 C 287.569 344.368,286.921 344.083,285.728 343.824 C 285.028 343.673,284.241 343.290,283.979 342.974 C 283.717 342.658,283.221 342.400,282.877 342.400 C 282.534 342.400,281.521 342.060,280.626 341.645 C 276.438 339.699,274.521 338.874,273.600 338.617 C 272.593 338.337,270.192 337.289,267.600 335.998 C 266.830 335.614,265.615 335.173,264.900 335.018 C 264.185 334.863,263.600 334.574,263.600 334.376 C 263.600 334.178,263.105 333.898,262.500 333.754 C 261.490 333.515,259.649 332.740,255.390 330.763 C 254.505 330.352,253.200 329.900,252.490 329.758 C 251.781 329.616,251.200 329.379,251.200 329.230 C 251.200 329.082,250.525 328.732,249.700 328.452 C 248.133 327.920,246.232 327.111,244.200 326.113 C 243.541 325.788,242.191 325.259,241.200 324.936 C 240.210 324.613,238.680 324.012,237.800 323.599 C 234.970 322.273,233.291 321.600,232.815 321.600 C 232.358 321.600,230.002 320.590,223.574 317.639 C 222.569 317.177,221.629 316.800,221.484 316.800 C 221.339 316.800,220.091 316.283,218.710 315.652 C 217.330 315.021,215.615 314.377,214.900 314.220 C 214.185 314.064,213.600 313.773,213.600 313.574 C 213.600 313.375,212.790 313.008,211.800 312.758 C 210.810 312.509,210.000 312.146,210.000 311.953 C 210.000 311.759,209.825 311.600,209.610 311.600 C 209.396 311.600,208.041 311.060,206.600 310.400 C 202.817 308.667,197.007 308.667,193.400 310.400 M220.000 347.622 C 219.010 347.814,217.603 348.078,216.873 348.209 L 215.545 348.446 215.673 365.123 C 215.834 386.227,216.128 386.999,224.346 387.857 C 227.008 388.136,226.891 388.286,227.411 383.944 L 227.681 381.689 226.273 381.224 C 223.728 380.384,223.819 380.988,223.600 363.439 C 223.373 345.269,223.744 346.897,220.000 347.622 M252.000 347.825 C 250.350 348.114,248.955 348.361,248.900 348.375 C 248.552 348.462,248.869 379.882,249.236 381.592 C 250.029 385.292,252.754 387.357,257.496 387.852 L 259.866 388.100 260.333 385.273 C 260.948 381.551,260.976 381.702,259.605 381.401 C 256.779 380.780,256.800 380.917,256.800 363.146 L 256.800 347.200 255.900 347.250 C 255.405 347.278,253.650 347.537,252.000 347.825 M126.800 359.825 C 126.470 359.897,124.895 360.163,123.300 360.415 L 120.400 360.872 120.400 379.036 L 120.400 397.200 124.200 397.200 L 128.000 397.200 128.000 392.267 C 128.000 386.909,128.086 386.594,129.353 387.302 C 130.910 388.173,137.168 387.927,139.000 386.924 C 147.626 382.198,148.117 366.988,139.815 361.694 C 137.107 359.967,130.481 359.015,126.800 359.825 M168.154 361.041 C 167.653 363.037,168.290 378.834,168.959 381.000 C 170.861 387.157,178.634 389.567,189.100 387.245 L 191.600 386.691 191.600 373.330 L 191.600 359.970 187.900 360.085 L 184.200 360.200 184.093 370.650 L 183.987 381.100 182.369 381.359 C 176.934 382.228,176.250 380.945,176.000 369.419 L 175.800 360.200 172.111 360.085 L 168.423 359.970 168.154 361.041 M133.979 366.638 C 137.992 368.244,139.250 376.521,136.008 379.991 C 134.786 381.300,131.368 381.700,129.026 380.810 L 128.000 380.420 128.000 373.439 C 128.000 367.127,128.067 366.441,128.700 366.276 C 130.224 365.878,132.462 366.031,133.979 366.638 " stroke="none" fill="#242424" fill-rule="evenodd"></path><g class="path1"><path id="path1" d="M197.600 314.251 C 197.270 314.377,195.740 315.074,194.200 315.799 C 190.547 317.519,185.734 319.600,185.411 319.600 C 185.271 319.600,184.401 319.937,183.478 320.348 C 182.555 320.760,179.820 321.947,177.400 322.986 C 174.980 324.026,172.550 325.105,172.000 325.386 C 171.450 325.666,170.010 326.214,168.800 326.603 C 167.034 327.171,161.202 329.521,155.400 332.003 C 154.960 332.192,152.170 333.359,149.200 334.597 C 146.230 335.835,143.260 337.093,142.600 337.393 C 141.940 337.693,139.420 338.777,137.000 339.801 C 134.580 340.826,132.060 341.906,131.400 342.201 C 130.740 342.497,128.580 343.400,126.600 344.209 C 124.620 345.018,122.190 346.048,121.200 346.498 C 120.210 346.948,118.860 347.545,118.200 347.825 C 117.540 348.105,115.124 349.159,112.831 350.167 C 110.538 351.175,108.513 352.000,108.332 352.000 C 108.151 352.000,105.887 352.924,103.302 354.054 C 100.716 355.184,97.880 356.423,97.000 356.808 C 96.120 357.192,93.780 358.176,91.800 358.994 C 87.307 360.850,74.612 366.281,73.000 367.036 C 72.340 367.345,69.010 368.752,65.600 370.163 C 62.190 371.573,57.510 373.577,55.200 374.616 C 52.890 375.655,50.640 376.647,50.200 376.821 C 49.760 376.995,46.790 378.252,43.600 379.614 C 37.242 382.328,37.171 382.358,31.400 384.788 C 24.445 387.716,14.246 392.052,13.000 392.610 C 12.340 392.906,10.450 393.711,8.800 394.400 C 7.150 395.089,5.260 395.894,4.600 396.189 C 3.940 396.485,2.635 397.040,1.700 397.424 C 0.381 397.965,0.000 398.332,0.000 399.061 L 0.000 400.000 200.000 400.000 L 400.000 400.000 400.000 399.061 C 400.000 398.332,399.619 397.965,398.300 397.424 C 397.365 397.040,396.060 396.485,395.400 396.189 C 394.740 395.894,392.850 395.089,391.200 394.400 C 389.550 393.711,387.660 392.906,387.000 392.610 C 385.754 392.052,375.555 387.716,368.600 384.788 C 362.829 382.358,362.758 382.328,356.400 379.614 C 353.210 378.252,350.240 376.995,349.800 376.821 C 349.360 376.647,347.110 375.655,344.800 374.616 C 342.490 373.577,337.810 371.573,334.400 370.163 C 330.990 368.752,327.660 367.345,327.000 367.036 C 325.388 366.281,312.693 360.850,308.200 358.994 C 306.220 358.176,303.880 357.192,303.000 356.808 C 302.120 356.423,299.284 355.184,296.698 354.054 C 294.113 352.924,291.849 352.000,291.668 352.000 C 291.487 352.000,289.462 351.175,287.169 350.167 C 284.876 349.159,282.460 348.105,281.800 347.825 C 281.140 347.545,279.790 346.948,278.800 346.498 C 277.810 346.048,275.380 345.018,273.400 344.209 C 271.420 343.400,269.260 342.497,268.600 342.201 C 267.940 341.906,265.420 340.826,263.000 339.801 C 260.580 338.777,258.060 337.693,257.400 337.393 C 256.740 337.093,253.770 335.835,250.800 334.597 C 247.830 333.359,245.040 332.192,244.600 332.003 C 238.798 329.521,232.966 327.171,231.200 326.603 C 229.990 326.214,228.550 325.666,228.000 325.386 C 227.450 325.105,225.020 324.026,222.600 322.986 C 220.180 321.947,217.445 320.760,216.522 320.348 C 215.599 319.937,214.729 319.600,214.589 319.600 C 214.227 319.600,209.143 317.378,205.611 315.678 C 202.704 314.277,199.171 313.648,197.600 314.251 M223.600 363.439 C 223.819 380.988,223.728 380.384,226.273 381.224 L 227.681 381.689 227.411 383.944 C 226.891 388.286,227.008 388.136,224.346 387.857 C 216.128 386.999,215.834 386.227,215.673 365.123 L 215.545 348.446 216.873 348.209 C 217.603 348.078,219.010 347.814,220.000 347.622 C 223.744 346.897,223.373 345.269,223.600 363.439 M256.800 363.146 C 256.800 380.917,256.779 380.780,259.605 381.401 C 260.976 381.702,260.948 381.551,260.333 385.273 L 259.866 388.100 257.496 387.852 C 252.754 387.357,250.029 385.292,249.236 381.592 C 248.869 379.882,248.552 348.462,248.900 348.375 C 249.674 348.181,255.232 347.288,255.900 347.250 L 256.800 347.200 256.800 363.146 M136.215 360.146 C 147.495 363.150,149.376 381.239,139.000 386.924 C 137.168 387.927,130.910 388.173,129.353 387.302 C 128.086 386.594,128.000 386.909,128.000 392.267 L 128.000 397.200 124.200 397.200 L 120.400 397.200 120.400 379.036 L 120.400 360.872 123.300 360.415 C 124.895 360.163,126.470 359.897,126.800 359.825 C 128.427 359.467,134.435 359.672,136.215 360.146 M176.000 369.419 C 176.250 380.945,176.934 382.228,182.369 381.359 L 183.987 381.100 184.093 370.650 L 184.200 360.200 187.900 360.085 L 191.600 359.970 191.600 373.330 L 191.600 386.691 189.100 387.245 C 178.634 389.567,170.861 387.157,168.959 381.000 C 168.290 378.834,167.653 363.037,168.154 361.041 L 168.423 359.970 172.111 360.085 L 175.800 360.200 176.000 369.419 M128.700 366.276 C 128.067 366.441,128.000 367.127,128.000 373.439 L 128.000 380.420 129.026 380.810 C 133.162 382.382,136.730 380.683,137.576 376.739 C 139.065 369.797,134.739 364.698,128.700 366.276 " stroke="none" fill="#ffffff" fill-rule="evenodd"></path></g></g></svg>