<?xml version="1.0" standalone="no"?>
<!DOCTYPE svg PUBLIC "-//W3C//DTD SVG 20010904//EN"
 "http://www.w3.org/TR/2001/REC-SVG-20010904/DTD/svg10.dtd">
<svg version="1.0" xmlns="http://www.w3.org/2000/svg"
 width="768.000000pt" height="768.000000pt" viewBox="0 0 768.000000 768.000000"
 preserveAspectRatio="xMidYMid meet">

<g transform="translate(0.000000,768.000000) scale(0.100000,-0.100000)"
fill="#ffffff" stroke="none">
<path d="M3720 1709 c-80 -37 -508 -219 -515 -219 -9 0 -344 -141 -1240 -522
-478 -204 -1115 -475 -1415 -603 l-545 -232 -3 -48 c-2 -36 0 -46 10 -42 7 3
261 111 563 240 1937 825 2623 1116 2670 1131 11 3 130 53 265 111 352 152
322 142 373 123 23 -9 152 -64 287 -123 135 -58 254 -108 265 -111 47 -15 733
-306 2670 -1131 303 -129 556 -237 563 -240 10 -4 12 6 10 42 l-3 48 -545 232
c-300 128 -936 399 -1415 603 -897 381 -1231 522 -1240 522 -6 0 -431 181
-528 224 -79 36 -142 34 -227 -5z"/>
<path d="M4225 1005 c-5 -2 -27 -6 -48 -10 l-38 -6 3 -322 c3 -301 4 -324 23
-356 24 -40 73 -68 137 -77 51 -7 51 -7 63 72 6 39 5 42 -25 54 -18 7 -36 24
-41 37 -5 13 -9 157 -9 319 l0 294 -27 -1 c-16 0 -32 -2 -38 -4z"/>
<path d="M4845 1003 c-11 -2 -30 -6 -43 -9 l-23 -5 3 -329 c3 -316 4 -330 24
-357 29 -39 70 -61 130 -69 l52 -6 7 43 c3 24 9 52 11 61 4 12 -2 19 -21 24
-54 13 -55 23 -55 351 l0 303 -32 -1 c-18 -1 -42 -3 -53 -6z"/>
<path d="M2445 774 c-16 -3 -54 -9 -82 -15 l-53 -10 0 -345 0 -344 75 0 75 0
0 96 0 96 33 -9 c57 -14 139 -8 182 14 51 26 69 47 97 108 29 65 31 188 5 257
-22 57 -91 123 -143 137 -47 13 -148 21 -189 15z m143 -140 c67 -47 79 -188
21 -250 -18 -19 -33 -24 -70 -24 -82 0 -79 -5 -79 151 l0 139 53 0 c31 0 61
-6 75 -16z"/>
<path d="M3230 601 c0 -94 5 -193 11 -221 14 -64 66 -123 124 -139 52 -14 163
-13 245 2 l65 12 3 258 2 258 -72 -3 -73 -3 -3 -201 -2 -202 -28 -5 c-39 -8
-78 2 -99 25 -16 17 -19 45 -23 202 l-5 181 -72 3 -73 3 0 -170z"/>
</g>
</svg>
