<?xml version="1.0" standalone="no"?>
<!DOCTYPE svg PUBLIC "-//W3C//DTD SVG 20010904//EN"
 "http://www.w3.org/TR/2001/REC-SVG-20010904/DTD/svg10.dtd">
<svg version="1.0" xmlns="http://www.w3.org/2000/svg"
 width="768.000000pt" height="768.000000pt" viewBox="0 0 768.000000 768.000000"
 preserveAspectRatio="xMidYMid meet">

<g transform="translate(0.000000,768.000000) scale(0.100000,-0.100000)"
fill="#ffffff" stroke="none">
<path d="M3720 1709 c-80 -37 -508 -219 -515 -219 -9 0 -344 -141 -1240 -522
-478 -204 -1115 -475 -1415 -603 l-545 -232 -3 -45 -3 -46 558 238 c2312 984
2656 1130 2668 1130 6 0 431 181 528 224 32 14 71 26 87 26 16 0 55 -12 87
-26 97 -43 522 -224 528 -224 12 0 356 -146 2668 -1130 l558 -238 -3 46 -3 45
-545 232 c-300 128 -936 399 -1415 603 -897 381 -1231 522 -1240 522 -6 0
-431 181 -528 224 -79 36 -142 34 -227 -5z"/>
</g>
</svg>
